<?xml version="1.0" encoding="UTF-8"?>
<svg xmlns="http://www.w3.org/2000/svg" version="1.1" viewBox="0 0 966.9 399.9">
  <defs>
    <style>
      .cls-1 {
        fill: none;
        stroke: #000;
        stroke-miterlimit: 11.3;
        stroke-width: .4px;
      }

      .cls-2 {
        fill: #fff;
        stroke: #231f20;
        stroke-miterlimit: 10;
      }
    </style>
  </defs>
  <!-- Generator: Adobe Illustrator 28.7.0, SVG Export Plug-In . SVG Version: 1.2.0 Build 136)  -->
  <g>
    <g id="Layer_1">
      <rect class="cls-2" x="8.6" y="18.5" width="949.6" height="362.8" rx="28.3" ry="28.3"/>
      <polygon class="cls-1" points="686.3 321.8 686.3 324.7 684.1 324.7 684.1 333.5 686.3 333.5 686.3 349.9 684.1 349.9 684.1 358.7 686.3 358.7 686.3 361.5 726 361.5 726 358.7 728.3 358.7 728.3 349.9 726 349.9 726 333.5 728.3 333.5 728.3 324.7 726 324.7 726 321.8 686.3 321.8"/>
      <polygon class="cls-1" points="888.8 321.8 888.8 324.7 886.6 324.7 886.6 333.5 888.8 333.5 888.8 349.9 886.6 349.9 886.6 358.7 888.8 358.7 888.8 361.5 928.5 361.5 928.5 358.7 930.8 358.7 930.8 349.9 928.5 349.9 928.5 333.5 930.8 333.5 930.8 324.7 928.5 324.7 928.5 321.8 888.8 321.8"/>
      <polygon class="cls-1" points="38.3 308.3 38.3 311.2 36.1 311.2 36.1 320 38.3 320 38.3 336.4 36.1 336.4 36.1 345.2 38.3 345.2 38.3 348 78 348 78 345.2 80.3 345.2 80.3 336.4 78 336.4 78 320 80.3 320 80.3 311.2 78 311.2 78 308.3 38.3 308.3"/>
      <polygon class="cls-1" points="105.8 308.3 105.8 311.2 103.6 311.2 103.6 320 105.8 320 105.8 336.4 103.6 336.4 103.6 345.2 105.8 345.2 105.8 348 145.5 348 145.5 345.2 147.8 345.2 147.8 336.4 145.5 336.4 145.5 320 147.8 320 147.8 311.2 145.5 311.2 145.5 308.3 105.8 308.3"/>
      <polygon class="cls-1" points="173.3 308.3 173.3 311.2 171.1 311.2 171.1 320 173.3 320 173.3 336.4 171.1 336.4 171.1 345.2 173.3 345.2 173.3 348 213 348 213 345.2 215.3 345.2 215.3 336.4 213 336.4 213 320 215.3 320 215.3 311.2 213 311.2 213 308.3 173.3 308.3"/>
      <polygon class="cls-1" points="240.8 308.3 240.8 311.2 238.6 311.2 238.6 320 240.8 320 240.8 336.4 238.6 336.4 238.6 345.2 240.8 345.2 240.8 348 280.5 348 280.5 345.2 282.8 345.2 282.8 336.4 280.5 336.4 280.5 320 282.8 320 282.8 311.2 280.5 311.2 280.5 308.3 240.8 308.3"/>
      <polygon class="cls-1" points="308.3 308.3 308.3 311.2 306.1 311.2 306.1 320 308.3 320 308.3 336.4 306.1 336.4 306.1 345.2 308.3 345.2 308.3 348 348 348 348 345.2 350.3 345.2 350.3 336.4 348 336.4 348 320 350.3 320 350.3 311.2 348 311.2 348 308.3 308.3 308.3"/>
      <polygon class="cls-1" points="375.8 308.3 375.8 311.2 373.6 311.2 373.6 320 375.8 320 375.8 336.4 373.6 336.4 373.6 345.2 375.8 345.2 375.8 348 415.5 348 415.5 345.2 417.8 345.2 417.8 336.4 415.5 336.4 415.5 320 417.8 320 417.8 311.2 415.5 311.2 415.5 308.3 375.8 308.3"/>
      <polygon class="cls-1" points="443.3 308.3 443.3 311.2 441.1 311.2 441.1 320 443.3 320 443.3 336.4 441.1 336.4 441.1 345.2 443.3 345.2 443.3 348 483 348 483 345.2 485.3 345.2 485.3 336.4 483 336.4 483 320 485.3 320 485.3 311.2 483 311.2 483 308.3 443.3 308.3"/>
      <polygon class="cls-1" points="510.8 308.3 510.8 311.2 508.6 311.2 508.6 320 510.8 320 510.8 336.4 508.6 336.4 508.6 345.2 510.8 345.2 510.8 348 550.5 348 550.5 345.2 552.8 345.2 552.8 336.4 550.5 336.4 550.5 320 552.8 320 552.8 311.2 550.5 311.2 550.5 308.3 510.8 308.3"/>
      <polygon class="cls-1" points="753.8 267.8 753.8 270.7 751.6 270.7 751.6 279.5 753.8 279.5 753.8 295.9 751.6 295.9 751.6 304.7 753.8 304.7 753.8 307.5 793.5 307.5 793.5 304.7 795.8 304.7 795.8 295.9 793.5 295.9 793.5 279.5 795.8 279.5 795.8 270.7 793.5 270.7 793.5 267.8 753.8 267.8"/>
      <polygon class="cls-1" points="821.3 267.8 821.3 270.7 819.1 270.7 819.1 279.5 821.3 279.5 821.3 295.9 819.1 295.9 819.1 304.7 821.3 304.7 821.3 307.5 861 307.5 861 304.7 863.3 304.7 863.3 295.9 861 295.9 861 279.5 863.3 279.5 863.3 270.7 861 270.7 861 267.8 821.3 267.8"/>
      <polygon class="cls-1" points="38.3 227.3 38.3 230.2 36.1 230.2 36.1 239 38.3 239 38.3 255.4 36.1 255.4 36.1 264.2 38.3 264.2 38.3 267 78 267 78 264.2 80.3 264.2 80.3 255.4 78 255.4 78 239 80.3 239 80.3 230.2 78 230.2 78 227.3 38.3 227.3"/>
      <polygon class="cls-1" points="105.8 227.3 105.8 230.2 103.6 230.2 103.6 239 105.8 239 105.8 255.4 103.6 255.4 103.6 264.2 105.8 264.2 105.8 267 145.5 267 145.5 264.2 147.8 264.2 147.8 255.4 145.5 255.4 145.5 239 147.8 239 147.8 230.2 145.5 230.2 145.5 227.3 105.8 227.3"/>
      <polygon class="cls-1" points="173.3 227.3 173.3 230.2 171.1 230.2 171.1 239 173.3 239 173.3 255.4 171.1 255.4 171.1 264.2 173.3 264.2 173.3 267 213 267 213 264.2 215.3 264.2 215.3 255.4 213 255.4 213 239 215.3 239 215.3 230.2 213 230.2 213 227.3 173.3 227.3"/>
      <polygon class="cls-1" points="240.8 227.3 240.8 230.2 238.6 230.2 238.6 239 240.8 239 240.8 255.4 238.6 255.4 238.6 264.2 240.8 264.2 240.8 267 280.5 267 280.5 264.2 282.8 264.2 282.8 255.4 280.5 255.4 280.5 239 282.8 239 282.8 230.2 280.5 230.2 280.5 227.3 240.8 227.3"/>
      <polygon class="cls-1" points="308.3 227.3 308.3 230.2 306.1 230.2 306.1 239 308.3 239 308.3 255.4 306.1 255.4 306.1 264.2 308.3 264.2 308.3 267 348 267 348 264.2 350.3 264.2 350.3 255.4 348 255.4 348 239 350.3 239 350.3 230.2 348 230.2 348 227.3 308.3 227.3"/>
      <polygon class="cls-1" points="375.8 227.3 375.8 230.2 373.6 230.2 373.6 239 375.8 239 375.8 255.4 373.6 255.4 373.6 264.2 375.8 264.2 375.8 267 415.5 267 415.5 264.2 417.8 264.2 417.8 255.4 415.5 255.4 415.5 239 417.8 239 417.8 230.2 415.5 230.2 415.5 227.3 375.8 227.3"/>
      <polygon class="cls-1" points="443.3 227.3 443.3 230.2 441.1 230.2 441.1 239 443.3 239 443.3 255.4 441.1 255.4 441.1 264.2 443.3 264.2 443.3 267 483 267 483 264.2 485.3 264.2 485.3 255.4 483 255.4 483 239 485.3 239 485.3 230.2 483 230.2 483 227.3 443.3 227.3"/>
      <polygon class="cls-1" points="510.8 227.3 510.8 230.2 508.6 230.2 508.6 239 510.8 239 510.8 255.4 508.6 255.4 508.6 264.2 510.8 264.2 510.8 267 550.5 267 550.5 264.2 552.8 264.2 552.8 255.4 550.5 255.4 550.5 239 552.8 239 552.8 230.2 550.5 230.2 550.5 227.3 510.8 227.3"/>
      <polygon class="cls-1" points="753.8 200.3 753.8 203.2 751.6 203.2 751.6 212 753.8 212 753.8 228.4 751.6 228.4 751.6 237.2 753.8 237.2 753.8 240 793.5 240 793.5 237.2 795.8 237.2 795.8 228.4 793.5 228.4 793.5 212 795.8 212 795.8 203.2 793.5 203.2 793.5 200.3 753.8 200.3"/>
      <polygon class="cls-1" points="821.3 200.3 821.3 203.2 819.1 203.2 819.1 212 821.3 212 821.3 228.4 819.1 228.4 819.1 237.2 821.3 237.2 821.3 240 861 240 861 237.2 863.3 237.2 863.3 228.4 861 228.4 861 212 863.3 212 863.3 203.2 861 203.2 861 200.3 821.3 200.3"/>
      <polygon class="cls-1" points="686.3 119.3 686.3 122.2 684.1 122.2 684.1 131 686.3 131 686.3 147.4 684.1 147.4 684.1 156.2 686.3 156.2 686.3 159 726 159 726 156.2 728.3 156.2 728.3 147.4 726 147.4 726 131 728.3 131 728.3 122.2 726 122.2 726 119.3 686.3 119.3"/>
      <polygon class="cls-1" points="753.8 119.3 753.8 122.2 751.6 122.2 751.6 131 753.8 131 753.8 147.4 751.6 147.4 751.6 156.2 753.8 156.2 753.8 159 793.5 159 793.5 156.2 795.8 156.2 795.8 147.4 793.5 147.4 793.5 131 795.8 131 795.8 122.2 793.5 122.2 793.5 119.3 753.8 119.3"/>
      <polygon class="cls-1" points="821.3 119.3 821.3 122.2 819.1 122.2 819.1 131 821.3 131 821.3 147.4 819.1 147.4 819.1 156.2 821.3 156.2 821.3 159 861 159 861 156.2 863.3 156.2 863.3 147.4 861 147.4 861 131 863.3 131 863.3 122.2 861 122.2 861 119.3 821.3 119.3"/>
      <polygon class="cls-1" points="888.8 119.3 888.8 122.2 886.6 122.2 886.6 131 888.8 131 888.8 147.4 886.6 147.4 886.6 156.2 888.8 156.2 888.8 159 928.5 159 928.5 156.2 930.8 156.2 930.8 147.4 928.5 147.4 928.5 131 930.8 131 930.8 122.2 928.5 122.2 928.5 119.3 888.8 119.3"/>
      <polygon class="cls-1" points="443.3 78.8 443.3 81.7 441.1 81.7 441.1 90.5 443.3 90.5 443.3 106.9 441.1 106.9 441.1 115.7 443.3 115.7 443.3 118.5 483 118.5 483 115.7 485.3 115.7 485.3 106.9 483 106.9 483 90.5 485.3 90.5 485.3 81.7 483 81.7 483 78.8 443.3 78.8"/>
      <polygon class="cls-1" points="510.8 78.8 510.8 81.7 508.6 81.7 508.6 90.5 510.8 90.5 510.8 106.9 508.6 106.9 508.6 115.7 510.8 115.7 510.8 118.5 550.5 118.5 550.5 115.7 552.8 115.7 552.8 106.9 550.5 106.9 550.5 90.5 552.8 90.5 552.8 81.7 550.5 81.7 550.5 78.8 510.8 78.8"/>
      <polygon class="cls-1" points="686.3 51.8 686.3 54.7 684.1 54.7 684.1 63.5 686.3 63.5 686.3 79.9 684.1 79.9 684.1 88.7 686.3 88.7 686.3 91.5 726 91.5 726 88.7 728.3 88.7 728.3 79.9 726 79.9 726 63.5 728.3 63.5 728.3 54.7 726 54.7 726 51.8 686.3 51.8"/>
      <polygon class="cls-1" points="753.8 51.8 753.8 54.7 751.6 54.7 751.6 63.5 753.8 63.5 753.8 79.9 751.6 79.9 751.6 88.7 753.8 88.7 753.8 91.5 793.5 91.5 793.5 88.7 795.8 88.7 795.8 79.9 793.5 79.9 793.5 63.5 795.8 63.5 795.8 54.7 793.5 54.7 793.5 51.8 753.8 51.8"/>
      <polygon class="cls-1" points="821.3 51.8 821.3 54.7 819.1 54.7 819.1 63.5 821.3 63.5 821.3 79.9 819.1 79.9 819.1 88.7 821.3 88.7 821.3 91.5 861 91.5 861 88.7 863.3 88.7 863.3 79.9 861 79.9 861 63.5 863.3 63.5 863.3 54.7 861 54.7 861 51.8 821.3 51.8"/>
      <polygon class="cls-1" points="888.8 51.8 888.8 54.7 886.6 54.7 886.6 63.5 888.8 63.5 888.8 79.9 886.6 79.9 886.6 88.7 888.8 88.7 888.8 91.5 928.5 91.5 928.5 88.7 930.8 88.7 930.8 79.9 928.5 79.9 928.5 63.5 930.8 63.5 930.8 54.7 928.5 54.7 928.5 51.8 888.8 51.8"/>
      <rect class="cls-1" x="595.8" y="67" width="56.7" height="252.3"/>
      <circle class="cls-1" cx="85.2" cy="71.7" r="10.2"/>
      <circle class="cls-1" cx="166.2" cy="71.7" r="10.2"/>
      <circle class="cls-1" cx="247.2" cy="71.7" r="10.2"/>
      <circle class="cls-1" cx="355.2" cy="71.7" r="10.2"/>
    </g>
  </g>
</svg>